<svg xmlns="http://www.w3.org/2000/svg" viewBox="0 0 24 24" fill="currentColor" class="w-4 h-4">
  <path fill-rule="evenodd" d="M14.615 1.595a.75.75 0 01.279.584V11h4.153c.225 0 .434.05.598.13a.75.75 0 01.262.237c.095.112.145.248.145.386v.155a.25.25 0 01-.022.096l-3.005 7.352a.75.75 0 01-1.272.144l-.955-1.491a.75.75 0 00-.584-.33H8.78l-.943 1.546a.75.75 0 01-1.286.138L3.68 12.13a.75.75 0 01-.18-.643V11.25c0-.138.05-.274.145-.386a.75.75 0 01.262-.237c.164-.08.373-.13.598-.13h4.153V2.179a.75.75 0 01.279-.584 1.454 1.454 0 011.442-.07l4.153 2.395a.75.75 0 01.37.69zm0 2.546L12.177 4.25 10.28 5.25v5.25h2.897l2.438-5.359z" clip-rule="evenodd" />
</svg>
